PathFileType	4	(X/Y/Z)	Patient4_TMGait_0pt8_01_left_47.trc.trc
DataRate	CameraRate	NumFrames	NumMarkers	Units	OrigDataRate	OrigDataStartFrame	OrigNumFrames
90.322580645161	90.322580645161	4	33	mm	90.322580645161	106	       141
Frame#	Time	Sacral			L.Shoulder			Chest			R.Shoulder			Neck			R.ASIS			L.ASIS			R.Thigh.Superior			R.Thigh.Lateral			R.Thigh.Inferior			R.Patella			L.Thigh.Superior			L.Thigh.Lateral			L.Thigh.Inferior			L.Patella			L.Shank.Superior			L.Shank.Lateral			L.Shank.Inferior			R.Shank.Superior			R.Shank.Lateral			R.Shank.Inferior			R.Heel			R.Midfoot.Superior			R.Midfoot.Lateral			R.Toe			L.Heel			L.Midfoot.Lateral			L.Midfoot.Superior			L.Toe			L.Elbow			L.Wrist			R.Elbow			R.Wrist			
		X1	Y1	Z1	X2	Y2	Z2	X3	Y3	Z3	X4	Y4	Z4	X5	Y5	Z5	X6	Y6	Z6	X7	Y7	Z7	X8	Y8	Z8	X9	Y9	Z9	X10	Y10	Z10	X11	Y11	Z11	X12	Y12	Z12	X13	Y13	Z13	X14	Y14	Z14	X15	Y15	Z15	X16	Y16	Z16	X17	Y17	Z17	X18	Y18	Z18	X19	Y19	Z19	X20	Y20	Z20	X21	Y21	Z21	X22	Y22	Z22	X23	Y23	Z23	X24	Y24	Z24	X25	Y25	Z25	X26	Y26	Z26	X27	Y27	Z27	X28	Y28	Z28	X29	Y29	Z29	X30	Y30	Z30	X31	Y31	Z31	X32	Y32	Z32	X33	Y33	Z33	

106	53.502500000000	882.301646783276	1009.389225741614	540.880189114657	1058.810515597930	1427.541937487901	341.133038027985	1170.788326894995	1359.297212654603	497.156040510639	1102.935889264225	1437.706731834866	675.749656325841	1057.251766598175	1493.991634520315	496.573682109930	1112.097527438889	945.857633193183	650.303791362293	1086.287739341656	959.242350367457	375.746305169529	1137.523955157458	738.419035154747	621.627916891525	1046.569602741474	634.575103602873	681.241881359601	1117.876166504051	576.588525922572	601.899526205680	1108.920295780885	489.271050208257	606.381858295050	1176.874913084142	788.857880873595	403.753898763884	1139.741363713825	661.522522647125	321.874204709993	1249.208473713956	605.128583200602	379.374412047182	1270.424161383026	520.358398574274	370.584046313865	1217.393211791172	446.305078944340	360.511540802747	1088.385026254598	373.894768116607	313.665579580414	1110.892578532502	242.495235241810	360.755102865875	1077.414253400792	402.763407573036	612.594963812157	999.759337309221	302.486967865678	671.340994196414	1038.022581961786	205.950657845598	607.515705784048	896.094457579667	45.035373902219	572.777069137499	1066.838847605781	97.430029773659	614.658578442326	976.839409656064	37.845385641930	650.486044972291	1185.140209110730	43.033352246742	647.522334793108	944.707230102420	133.523111212785	402.033298133974	1006.346787677801	105.831199625642	316.896677209260	1108.299903026432	135.492900773441	335.248473529421	1206.409440719988	45.343529567973	296.416391546742	1023.150873131782	1067.122889667839	252.812441211536	1089.450141533866	814.055652850338	255.750040849568	1133.817273500681	1089.424742909863	794.859921738859	1369.574686599722	1002.676028684104	742.709171800654	
107	53.513571428571	881.594976190633	1009.352646613935	542.196874819869	1057.474804491814	1426.886912594433	341.128788774977	1170.319624643465	1358.727839488969	496.519511634736	1103.808449911038	1437.558105107174	675.442280784816	1057.034289811533	1493.600999305781	496.460044088554	1111.627712936576	945.257415584335	650.076171779944	1084.210551535559	958.979799307705	375.507659698096	1134.357210681554	737.209514486667	620.789852642753	1042.613577724808	634.187430985143	681.259965788466	1112.483158073107	575.405604086309	601.519277202794	1102.416633665076	488.410282273025	606.095494253326	1175.407160878495	790.125945933689	403.399199503837	1139.186577407030	662.159317691809	321.840808170865	1249.025028989697	607.036623381573	379.156609197788	1271.888820829574	523.935504813398	370.275895255627	1222.797875231580	448.845464038520	360.021183112362	1098.769790911421	368.503295570761	313.335202881956	1130.101662668044	238.492214095923	359.951633850744	1070.479898084295	402.057862454846	612.389091519660	992.422392810739	302.233093706192	671.359004895767	1029.840826565270	205.524523089688	607.397268365316	887.152357143584	44.916770432119	572.894325706887	1057.808419848422	97.293936423330	614.523836468239	967.869864162370	37.783388496353	650.579383052376	1176.160498727785	43.021277999562	647.529231676074	971.972574594076	118.558115798227	401.894003539700	1034.694971967425	95.407274126258	316.217753838388	1134.572019871959	131.572237438132	334.051928099452	1238.153305203521	48.174244772536	294.256003596801	1015.064095627022	1066.866567114036	254.089469791334	1067.785733414265	810.958532156694	257.651477214743	1146.530429878061	1091.355957755339	794.005519134553	1387.602662376896	1027.063648430738	736.844384305139	
108	53.524642857143	880.954950264013	1009.268434367369	543.285062113679	1056.238974976610	1426.224220361365	341.040296187460	1169.947825041873	1358.065927740774	495.766530712628	1104.793561796880	1437.302206085578	675.005215187068	1056.880644033636	1493.130018779842	496.274774659482	1111.221047285559	944.564405067433	649.679847112530	1082.364342932732	958.608213706172	375.110903895072	1131.205093569322	735.926889952237	619.960257325687	1038.564514454008	633.778319314230	681.221493578484	1107.007767368608	574.189758129325	601.140762318855	1095.839377325028	487.542574802744	605.812404247499	1173.667474555974	790.783022343184	402.998439380166	1138.089216736135	662.305496224696	321.675323882655	1248.040905800879	608.162220235857	379.079511581156	1272.458654626292	526.959563500708	370.114214141303	1227.441255326436	451.149036686816	359.671178854113	1109.248001641995	363.032918665673	312.730320155893	1149.265431594297	235.076438247625	359.174427958343	1063.454672218605	401.356294452441	612.164117604624	985.015087457800	301.981598970556	671.365627069181	1021.608152779827	205.110361133293	607.277728530966	878.209132953449	44.787452149609	573.024862878348	1048.785111362610	97.176756037762	614.424833210159	958.897644994523	37.721209412335	650.669737616768	1167.189483462978	43.013326960855	647.540678551050	999.930800880390	104.646552222147	401.304195583062	1063.830970213869	85.982537989846	315.426210414068	1161.062043310308	128.590016561018	333.060368909267	1269.823855847166	52.293606765824	292.974859718291	1006.462962476665	1066.932567755087	255.047188417004	1046.847700772639	809.162705388413	259.539587103390	1159.486062087939	1093.729806390286	792.838161171963	1403.677142834851	1052.023027432508	730.923452376075	
109	53.535714285714	880.394012168229	1009.136291946321	544.141520332685	1055.100430206846	1425.561974986859	340.865540868528	1169.674796018538	1357.317570969282	494.892801790653	1105.892167716668	1436.945078910674	674.430913051486	1056.786413682936	1492.585385601645	496.013951845485	1110.891144703295	943.780456466679	649.112350753509	1080.740006754294	958.124720948011	374.570000043173	1128.087891327765	734.574202435074	619.172867402742	1034.415131093890	633.361145487850	681.131721275224	1101.454943131135	572.950755447752	600.784580584916	1089.188670827656	486.677533955712	605.540720529970	1171.690546791795	790.833054324932	402.566665895039	1136.516136654127	662.005692219857	321.329096619205	1246.334045779446	608.528010886322	379.119675348297	1272.217760972143	529.441204098487	370.092175407870	1231.351102642306	453.227622451575	359.469397751065	1119.783854773287	357.640324632807	311.849278616543	1168.176562519625	232.389097165852	358.479558147900	1056.336154280781	400.678065540638	611.932709542287	977.529149024613	301.747077697497	671.364034863951	1013.329948259193	204.721486438956	607.161315152034	869.266170668061	44.657243251064	573.164799726463	1039.774052117514	97.080141854210	614.362951124713	949.925235064848	37.661698598904	650.753618036598	1158.231224737895	43.007874759980	647.560981402487	1028.206715388018	92.090787297691	400.294629168439	1093.444554070539	77.784825393389	314.603779504682	1187.482067987670	126.695251912426	332.365859879843	1301.098153196179	57.761466356156	292.779068197324	997.433500473705	1067.358998611374	255.699752109436	1026.755664554027	808.485331220069	261.417886004942	1172.610065637251	1096.559832664188	791.380236330594	1417.766040940440	1077.240674593861	725.009464408297	
